<?xml version="1.0" encoding="UTF-8"?>
<!DOCTYPE svg PUBLIC "-//W3C//DTD SVG 1.1//EN" "http://www.w3.org/Graphics/SVG/1.1/DTD/svg11.dtd">
<svg xmlns="http://www.w3.org/2000/svg" version="1.1" width="1340px" height="404px" style="shape-rendering:geometricPrecision; text-rendering:geometricPrecision; image-rendering:optimizeQuality; fill-rule:evenodd; clip-rule:evenodd" xmlns:xlink="http://www.w3.org/1999/xlink">
<g><path style="opacity:1" fill="#fefefe" d="M -0.5,-0.5 C 446.167,-0.5 892.833,-0.5 1339.5,-0.5C 1339.5,134.167 1339.5,268.833 1339.5,403.5C 892.833,403.5 446.167,403.5 -0.5,403.5C -0.5,268.833 -0.5,134.167 -0.5,-0.5 Z"/></g>
<g><path style="opacity:1" fill="#090909" d="M 1076.5,290.5 C 1132.33,291.499 1188.33,291.832 1244.5,291.5C 1244.5,322.5 1244.5,353.5 1244.5,384.5C 1160.5,384.5 1076.5,384.5 992.5,384.5C 992.833,369.818 992.499,355.152 991.5,340.5C 990.893,340.624 990.56,340.957 990.5,341.5C 978.831,345.001 967.331,349.001 956,353.5C 955.501,348.845 955.334,344.179 955.5,339.5C 903.167,339.5 850.833,339.5 798.5,339.5C 798.5,354.5 798.5,369.5 798.5,384.5C 705.167,384.5 611.833,384.5 518.5,384.5C 518.829,369.657 518.496,354.99 517.5,340.5C 505.086,344.638 492.753,348.971 480.5,353.5C 480.5,348.833 480.5,344.167 480.5,339.5C 428.997,339.168 377.664,339.501 326.5,340.5C 326.5,355.167 326.5,369.833 326.5,384.5C 238.5,384.5 150.5,384.5 62.5,384.5C 62.5,353.5 62.5,322.5 62.5,291.5C 150.5,291.5 238.5,291.5 326.5,291.5C 326.5,306.167 326.5,320.833 326.5,335.5C 377.664,336.499 428.997,336.832 480.5,336.5C 479.903,331.706 480.57,327.373 482.5,323.5C 494.024,327.897 505.691,331.897 517.5,335.5C 518.496,321.01 518.829,306.343 518.5,291.5C 579.336,291.832 640.002,291.499 700.5,290.5C 705.713,277.738 711.213,265.071 717,252.5C 720.035,255.87 723.368,258.87 727,261.5C 759.017,227.651 790.85,193.651 822.5,159.5C 783.555,156.066 745.555,148.233 708.5,136C 695.061,130.785 682.728,123.785 671.5,115C 655.583,97.5819 657.25,81.9153 676.5,68C 696.495,55.109 718.161,46.109 741.5,41C 803.763,27.0871 866.763,22.4205 930.5,27C 976.004,28.7962 1020.34,36.7962 1063.5,51C 1076.89,55.8578 1089.22,62.5245 1100.5,71C 1114.6,83.191 1116.1,96.691 1105,111.5C 1093.89,121.982 1081.05,129.815 1066.5,135C 1042.4,143.591 1017.73,149.924 992.5,154C 978.734,155.214 965.067,157.048 951.5,159.5C 983.683,193.182 1015.68,227.016 1047.5,261C 1051.54,260.006 1054.87,257.673 1057.5,254C 1058.33,253.312 1059,253.479 1059.5,254.5C 1064.8,266.774 1070.47,278.774 1076.5,290.5 Z"/></g>
<g><path style="opacity:1" fill="#fdfdfd" d="M 850.5,29.5 C 911.888,26.7362 972.555,31.9028 1032.5,45C 1054.14,50.2115 1074.47,58.5448 1093.5,70C 1099.62,74.7393 1104.46,80.5726 1108,87.5C 1109.76,97.8107 1106.6,106.311 1098.5,113C 1090.33,119.593 1081.33,124.926 1071.5,129C 1042.19,140.578 1011.86,148.244 980.5,152C 919.87,158.882 859.203,159.215 798.5,153C 765.875,149.26 734.208,141.594 703.5,130C 688.612,124.665 676.446,115.832 667,103.5C 663.114,95.3669 663.781,87.7002 669,80.5C 681.469,67.6736 696.302,58.507 713.5,53C 758.211,38.9728 803.878,31.1394 850.5,29.5 Z"/></g>
<g><path style="opacity:1" fill="#0f0f0f" d="M 766.5,74.5 C 772.9,74.9 779.233,74.9 785.5,74.5C 785.824,78.5546 785.491,82.5546 784.5,86.5C 781.401,78.2836 775.734,75.4503 767.5,78C 758.246,87.3519 758.246,96.6853 767.5,106C 773.936,108.653 779.603,107.486 784.5,102.5C 785.282,104.329 784.616,105.829 782.5,107C 769.802,113.547 760.635,110.38 755,97.5C 753.029,86.7758 756.862,79.1091 766.5,74.5 Z"/></g>
<g><path style="opacity:1" fill="#101010" d="M 855.5,87.5 C 853.167,87.5 850.833,87.5 848.5,87.5C 848.177,93.69 848.51,99.69 849.5,105.5C 850.122,107.335 851.456,108.502 853.5,109C 849.167,109.667 844.833,109.667 840.5,109C 841.931,108.535 843.097,107.701 844,106.5C 844.5,100.175 844.666,93.8421 844.5,87.5C 839.167,86.8333 839.167,86.1667 844.5,85.5C 844.554,75.5966 849.22,72.0966 858.5,75C 860,77.1667 859.5,78.6667 857,79.5C 854.981,77.757 852.814,76.5903 850.5,76C 849.549,79.0567 849.216,82.2234 849.5,85.5C 852.082,85.0254 854.082,85.6921 855.5,87.5 Z"/></g>
<g><path style="opacity:1" fill="#0b0b0b" d="M 949.5,85.5 C 949.56,86.0431 949.893,86.3764 950.5,86.5C 951.8,83.6908 951.8,81.0241 950.5,78.5C 949.602,77.8423 948.602,77.1757 947.5,76.5C 949.923,75.2711 952.423,74.2711 955,73.5C 955.5,84.1615 955.667,94.8281 955.5,105.5C 956.978,105.238 958.311,105.571 959.5,106.5C 957.258,107.692 954.925,108.692 952.5,109.5C 951.833,108.833 951.167,108.167 950.5,107.5C 941.155,111.825 935.822,108.825 934.5,98.5C 935.252,89.072 940.252,84.7387 949.5,85.5 Z"/></g>
<g><path style="opacity:1" fill="#858585" d="M 950.5,78.5 C 951.8,81.0241 951.8,83.6908 950.5,86.5C 949.893,86.3764 949.56,86.0431 949.5,85.5C 950.468,83.3926 950.802,81.0593 950.5,78.5 Z"/></g>
<g><path style="opacity:1" fill="#171717" d="M 795.5,85.5 C 809.189,84.3477 814.356,90.3477 811,103.5C 806.63,110.7 800.797,112.2 793.5,108C 786.462,99.7458 787.129,92.2458 795.5,85.5 Z"/></g>
<g><path style="opacity:1" fill="#111111" d="M 818.5,85.5 C 820.492,85.3285 822.158,85.9951 823.5,87.5C 827.717,84.5136 831.551,84.847 835,88.5C 835.333,94.5 835.667,100.5 836,106.5C 836.833,107.333 837.667,108.167 838.5,109C 834.789,109.825 831.122,109.659 827.5,108.5C 828.325,107.614 829.325,107.281 830.5,107.5C 830.666,101.824 830.499,96.1569 830,90.5C 827.441,87.8765 825.108,88.2098 823,91.5C 822.333,96.8333 822.333,102.167 823,107.5C 823.75,108.126 824.584,108.626 825.5,109C 821.789,109.825 818.122,109.659 814.5,108.5C 815.242,107.713 816.075,107.047 817,106.5C 817.499,100.843 817.666,95.1764 817.5,89.5C 816.325,89.719 815.325,89.3857 814.5,88.5C 815.624,87.1408 816.958,86.1408 818.5,85.5 Z"/></g>
<g><path style="opacity:1" fill="#111111" d="M 864.5,85.5 C 879.675,85.5218 884.175,92.5218 878,106.5C 868.71,113.268 862.043,111.268 858,100.5C 856.984,94.0297 859.15,89.0297 864.5,85.5 Z"/></g>
<g><path style="opacity:1" fill="#121212" d="M 913.5,85.5 C 914.5,85.5 915.5,85.5 916.5,85.5C 916.351,86.552 916.517,87.552 917,88.5C 921.075,84.5899 925.075,84.5899 929,88.5C 930.204,94.7528 930.871,101.086 931,107.5C 931.75,108.126 932.584,108.626 933.5,109C 929.789,109.825 926.122,109.659 922.5,108.5C 923.242,107.713 924.075,107.047 925,106.5C 925.667,101.167 925.667,95.8333 925,90.5C 922.146,87.9836 919.479,88.3169 917,91.5C 916.333,96.5 916.333,101.5 917,106.5C 917.833,107.333 918.667,108.167 919.5,109C 915.833,109.667 912.167,109.667 908.5,109C 909.416,108.626 910.25,108.126 911,107.5C 911.667,101.5 911.667,95.5 911,89.5C 910.25,88.8742 909.416,88.3742 908.5,88C 910.175,87.0147 911.842,86.1814 913.5,85.5 Z"/></g>
<g><path style="opacity:1" fill="#141414" d="M 967.5,85.5 C 975.423,84.4425 979.757,87.7758 980.5,95.5C 975.125,95.1718 969.792,95.5052 964.5,96.5C 967.643,106.8 972.976,108.133 980.5,100.5C 980.833,100.833 981.167,101.167 981.5,101.5C 978.582,109.037 973.249,111.537 965.5,109C 960.741,104.509 959.241,99.0092 961,92.5C 962.694,89.6424 964.861,87.309 967.5,85.5 Z"/></g>
<g><path style="opacity:1" fill="#131313" d="M 988.5,85.5 C 989.859,86.0065 990.859,87.0065 991.5,88.5C 993.578,86.0136 996.245,85.0136 999.5,85.5C 999.5,87.1667 999.5,88.8333 999.5,90.5C 997.599,90.5668 995.766,90.2335 994,89.5C 993.055,89.9054 992.388,90.572 992,91.5C 991.171,96.8643 991.337,102.198 992.5,107.5C 993.5,108 994.5,108.5 995.5,109C 991.129,109.828 986.795,109.661 982.5,108.5C 983.628,107.738 984.795,107.071 986,106.5C 986.667,101.167 986.667,95.8333 986,90.5C 984.795,89.9288 983.628,89.2621 982.5,88.5C 984.594,87.4824 986.594,86.4824 988.5,85.5 Z"/></g>
<g><path style="opacity:1" fill="#101010" d="M 1013.5,85.5 C 1015.56,87.6597 1015.9,89.993 1014.5,92.5C 1013.78,88.0086 1011.11,86.342 1006.5,87.5C 1006.34,89.1992 1006.51,90.8659 1007,92.5C 1010.51,94.5871 1013.84,96.9204 1017,99.5C 1018.46,103.781 1017.29,106.947 1013.5,109C 1009.85,109.499 1006.18,109.665 1002.5,109.5C 1002.34,106.813 1002.5,104.146 1003,101.5C 1004.01,105.18 1006.35,107.513 1010,108.5C 1013.07,107.553 1014.07,105.553 1013,102.5C 1009.49,100.413 1006.16,98.0796 1003,95.5C 1001.68,87.3267 1005.18,83.9934 1013.5,85.5 Z"/></g>
<g><path style="opacity:1" fill="#090909" d="M 882.5,85.5 C 885.167,85.5 887.833,85.5 890.5,85.5C 890.334,91.8421 890.5,98.1754 891,104.5C 893.966,107.265 896.633,106.932 899,103.5C 899.667,98.5 899.667,93.5 899,88.5C 897.795,87.9288 896.628,87.2621 895.5,86.5C 898.086,85.52 900.753,85.1866 903.5,85.5C 903.334,91.8421 903.5,98.1754 904,104.5C 904.772,105.849 905.939,106.682 907.5,107C 905.129,107.735 902.795,108.568 900.5,109.5C 899.749,108.624 899.249,107.624 899,106.5C 895.193,109.952 891.193,110.285 887,107.5C 885.623,100.924 885.123,94.2569 885.5,87.5C 883.821,87.7148 882.821,87.0481 882.5,85.5 Z"/></g>
<g><path style="opacity:1" fill="#626262" d="M 1013.5,85.5 C 1014.5,85.5 1015.5,85.5 1016.5,85.5C 1016.81,88.2469 1016.48,90.9135 1015.5,93.5C 1014.89,93.3764 1014.56,93.0431 1014.5,92.5C 1015.9,89.993 1015.56,87.6597 1013.5,85.5 Z"/></g>
<g><path style="opacity:1" fill="#f8f8f8" d="M 797.5,87.5 C 804.607,87.8375 807.607,91.6709 806.5,99C 806.606,107.944 803.106,109.777 796,104.5C 793.539,98.4019 794.039,92.7352 797.5,87.5 Z"/></g>
<g><path style="opacity:1" fill="#f3f3f3" d="M 866.5,87.5 C 871.558,87.1143 874.391,89.4476 875,94.5C 875.667,97.5 875.667,100.5 875,103.5C 873.195,108.547 870.195,109.547 866,106.5C 861.2,99.8958 861.366,93.5625 866.5,87.5 Z"/></g>
<g><path style="opacity:1" fill="#ececec" d="M 943.5,87.5 C 947.182,86.7253 949.682,88.0586 951,91.5C 951.667,95.8333 951.667,100.167 951,104.5C 945.921,107.583 942.254,106.249 940,100.5C 938.668,95.4145 939.835,91.0812 943.5,87.5 Z"/></g>
<g><path style="opacity:1" fill="#5d5d5d" d="M 855.5,87.5 C 853.735,88.4614 851.735,88.7947 849.5,88.5C 849.5,94.1667 849.5,99.8333 849.5,105.5C 848.51,99.69 848.177,93.69 848.5,87.5C 850.833,87.5 853.167,87.5 855.5,87.5 Z"/></g>
<g><path style="opacity:1" fill="#dedede" d="M 968.5,87.5 C 972.167,87.8333 974.167,89.8333 974.5,93.5C 971.5,93.5 968.5,93.5 965.5,93.5C 965.028,90.6421 966.028,88.6421 968.5,87.5 Z"/></g>
<g><path style="opacity:1" fill="#fefefe" d="M 1067.5,289.5 C 1042.67,290.498 1017.67,290.831 992.5,290.5C 991.833,305.167 991.167,319.833 990.5,334.5C 978.831,330.999 967.331,326.999 956,322.5C 955.501,327.155 955.334,331.821 955.5,336.5C 903.167,336.5 850.833,336.5 798.5,336.5C 798.5,321.5 798.5,306.5 798.5,291.5C 768.5,290.833 738.5,290.167 708.5,289.5C 718.764,284.701 728.764,279.368 738.5,273.5C 736.183,270.683 733.683,268.016 731,265.5C 730.333,264.5 730.333,263.5 731,262.5C 763.2,228.634 795.034,194.468 826.5,160C 845.638,160.658 864.804,161.158 884,161.5C 905.178,160.954 926.345,160.454 947.5,160C 979.635,194.469 1012.13,228.636 1045,262.5C 1045.67,263.5 1045.67,264.5 1045,265.5C 1042.17,268.333 1039.33,271.167 1036.5,274C 1046.89,279.193 1057.22,284.36 1067.5,289.5 Z"/></g>
<g><path style="opacity:1" fill="#6f6f6f" d="M 700.5,290.5 C 640.002,291.499 579.336,291.832 518.5,291.5C 518.829,306.343 518.496,321.01 517.5,335.5C 517.5,320.5 517.5,305.5 517.5,290.5C 578.5,290.5 639.5,290.5 700.5,290.5 Z"/></g>
<g><path style="opacity:1" fill="#727272" d="M 708.5,289.5 C 738.5,290.167 768.5,290.833 798.5,291.5C 767.832,291.667 737.165,291.5 706.5,291C 707.044,290.283 707.711,289.783 708.5,289.5 Z"/></g>
<g><path style="opacity:1" fill="#b3b3b3" d="M 992.5,290.5 C 992.5,290.833 992.5,291.167 992.5,291.5C 992.833,306.182 992.499,320.848 991.5,335.5C 990.893,335.376 990.56,335.043 990.5,334.5C 991.167,319.833 991.833,305.167 992.5,290.5 Z"/></g>
<g><path style="opacity:1" fill="#727272" d="M 1067.5,289.5 C 1068.29,289.783 1068.96,290.283 1069.5,291C 1043.84,291.5 1018.17,291.667 992.5,291.5C 992.5,291.167 992.5,290.833 992.5,290.5C 1017.67,290.831 1042.67,290.498 1067.5,289.5 Z"/></g>
<g><path style="opacity:1" fill="#646464" d="M 1076.5,290.5 C 1132.83,290.5 1189.17,290.5 1245.5,290.5C 1245.5,322.167 1245.5,353.833 1245.5,385.5C 1161.17,385.5 1076.83,385.5 992.5,385.5C 992.5,385.167 992.5,384.833 992.5,384.5C 1076.5,384.5 1160.5,384.5 1244.5,384.5C 1244.5,353.5 1244.5,322.5 1244.5,291.5C 1188.33,291.832 1132.33,291.499 1076.5,290.5 Z"/></g>
<g><path style="opacity:1" fill="#d4d4d4" d="M 1240.5,381.5 C 1240.5,352.833 1240.5,324.167 1240.5,295.5C 1159.17,295.5 1077.83,295.5 996.5,295.5C 996.5,309.167 996.5,322.833 996.5,336.5C 995.504,322.677 995.171,308.677 995.5,294.5C 1077.5,294.5 1159.5,294.5 1241.5,294.5C 1241.83,323.671 1241.5,352.671 1240.5,381.5 Z"/></g>
<g><path style="opacity:1" fill="#fcfcfc" d="M 65.5,294.5 C 151.167,294.5 236.833,294.5 322.5,294.5C 322.5,323.5 322.5,352.5 322.5,381.5C 236.833,381.5 151.167,381.5 65.5,381.5C 65.5,352.5 65.5,323.5 65.5,294.5 Z"/></g>
<g><path style="opacity:1" fill="#fcfcfc" d="M 521.5,294.5 C 612.5,294.5 703.5,294.5 794.5,294.5C 794.5,323.5 794.5,352.5 794.5,381.5C 703.5,381.5 612.5,381.5 521.5,381.5C 520.86,366.756 521.527,352.256 523.5,338C 521.527,323.744 520.86,309.244 521.5,294.5 Z"/></g>
<g><path style="opacity:1" fill="#fcfcfc" d="M 1240.5,381.5 C 1158.83,381.5 1077.17,381.5 995.5,381.5C 995.333,367.496 995.5,353.496 996,339.5C 996.75,338.874 997.584,338.374 998.5,338C 997.584,337.722 996.918,337.222 996.5,336.5C 996.5,322.833 996.5,309.167 996.5,295.5C 1077.83,295.5 1159.17,295.5 1240.5,295.5C 1240.5,324.167 1240.5,352.833 1240.5,381.5 Z"/></g>
<g><path style="opacity:1" fill="#0f0f0f" d="M 106.5,318.5 C 113.234,318.869 119.901,318.869 126.5,318.5C 126.823,322.226 126.489,325.893 125.5,329.5C 117.181,317.327 109.347,317.661 102,330.5C 100.838,336.557 101.838,342.223 105,347.5C 109.867,351.91 115.201,352.576 121,349.5C 121.667,345.5 121.667,341.5 121,337.5C 119.795,336.929 118.628,336.262 117.5,335.5C 121.833,334.167 126.167,334.167 130.5,335.5C 129.066,336.23 127.9,337.23 127,338.5C 126.828,342.871 126.328,347.204 125.5,351.5C 116.838,354.644 108.504,354.144 100.5,350C 95.7668,344 94.2668,337.166 96,329.5C 98.3566,324.645 101.857,320.979 106.5,318.5 Z"/></g>
<g><path style="opacity:1" fill="#585858" d="M 566.5,319.5 C 560.974,319.179 555.64,319.512 550.5,320.5C 549.957,320.44 549.624,320.107 549.5,319.5C 555.32,318.184 560.987,318.184 566.5,319.5 Z"/></g>
<g><path style="opacity:1" fill="#0b0b0b" d="M 584.5,318.5 C 585.166,323.017 585.833,327.683 586.5,332.5C 587.107,332.376 587.44,332.043 587.5,331.5C 592.351,328.336 596.517,329.003 600,333.5C 600.333,339.5 600.667,345.5 601,351.5C 601.75,352.126 602.584,352.626 603.5,353C 599.5,353.667 595.5,353.667 591.5,353C 592.579,352.044 593.745,351.211 595,350.5C 595.667,345.167 595.667,339.833 595,334.5C 592.034,331.735 589.367,332.068 587,335.5C 586.171,340.864 586.337,346.198 587.5,351.5C 588.308,351.808 588.975,352.308 589.5,353C 585.789,353.825 582.122,353.659 578.5,352.5C 579.242,351.713 580.075,351.047 581,350.5C 581.5,340.839 581.666,331.172 581.5,321.5C 580.325,321.719 579.325,321.386 578.5,320.5C 580.304,319.232 582.304,318.565 584.5,318.5 Z"/></g>
<g><path style="opacity:1" fill="#474747" d="M 584.5,318.5 C 584.56,317.957 584.893,317.624 585.5,317.5C 586.167,322.317 586.834,326.983 587.5,331.5C 587.44,332.043 587.107,332.376 586.5,332.5C 585.833,327.683 585.166,323.017 584.5,318.5 Z"/></g>
<g><path style="opacity:1" fill="#0f0f0f" d="M 1035.5,318.5 C 1056.08,317.574 1063.24,326.907 1057,346.5C 1048.93,355.884 1039.93,356.884 1030,349.5C 1022.5,337.369 1024.33,327.035 1035.5,318.5 Z"/></g>
<g><path style="opacity:1" fill="#0b0b0b" d="M 550.5,320.5 C 555.64,319.512 560.974,319.179 566.5,319.5C 575.014,319.843 578.514,324.176 577,332.5C 572.388,337.889 566.555,339.889 559.5,338.5C 559.335,342.182 559.501,345.848 560,349.5C 561.204,350.859 562.704,351.859 564.5,352.5C 559.5,353.833 554.5,353.833 549.5,352.5C 551.296,351.859 552.796,350.859 554,349.5C 554.667,340.5 554.667,331.5 554,322.5C 553.184,321.177 552.017,320.511 550.5,320.5 Z"/></g>
<g><path style="opacity:1" fill="#efefef" d="M 559.5,321.5 C 562.607,321.351 565.607,321.851 568.5,323C 572.446,326.872 572.446,330.706 568.5,334.5C 565.579,335.407 562.579,335.74 559.5,335.5C 559.5,330.833 559.5,326.167 559.5,321.5 Z"/></g>
<g><path style="opacity:1" fill="#f8f8f8" d="M 1039.5,320.5 C 1047.12,320.28 1051.62,323.947 1053,331.5C 1054.42,339.252 1052.25,345.752 1046.5,351C 1038.08,352.534 1033.25,349.034 1032,340.5C 1030.1,332.026 1032.6,325.359 1039.5,320.5 Z"/></g>
<g><path style="opacity:1" fill="#131313" d="M 218.5,331.5 C 216.833,331.5 215.167,331.5 213.5,331.5C 213.178,337.358 213.511,343.025 214.5,348.5C 214.47,349.497 214.97,350.164 216,350.5C 219.76,349.264 220.26,350.097 217.5,353C 214.901,353.769 212.401,353.602 210,352.5C 209.24,345.035 208.074,337.701 206.5,330.5C 208.657,328.208 210.824,325.875 213,323.5C 213.495,325.473 213.662,327.473 213.5,329.5C 215.781,329.077 217.448,329.744 218.5,331.5 Z"/></g>
<g><path style="opacity:1" fill="#0c0c0c" d="M 684.5,323.5 C 686.308,324.918 686.975,326.918 686.5,329.5C 693.167,330.167 693.167,330.833 686.5,331.5C 686.334,337.509 686.501,343.509 687,349.5C 688.889,350.097 690.722,350.431 692.5,350.5C 689.849,353.471 686.682,354.137 683,352.5C 681.623,345.924 681.123,339.257 681.5,332.5C 680.325,332.719 679.325,332.386 678.5,331.5C 680.934,329.079 682.934,326.412 684.5,323.5 Z"/></g>
<g><path style="opacity:1" fill="#141414" d="M 1093.5,323.5 C 1095.31,324.918 1095.97,326.918 1095.5,329.5C 1097.17,329.5 1098.83,329.5 1100.5,329.5C 1100.5,330.5 1100.5,331.5 1100.5,332.5C 1098.83,332.5 1097.17,332.5 1095.5,332.5C 1095.33,338.176 1095.5,343.843 1096,349.5C 1097.79,350.343 1099.62,350.51 1101.5,350C 1098.43,353.929 1094.93,354.429 1091,351.5C 1090.5,345.175 1090.33,338.842 1090.5,332.5C 1089.32,332.719 1088.32,332.386 1087.5,331.5C 1089.91,329.098 1091.91,326.431 1093.5,323.5 Z"/></g>
<g><path style="opacity:1" fill="#0c0c0c" d="M 151.5,335.5 C 151.5,336.5 151.5,337.5 151.5,338.5C 146.305,338.179 141.305,338.513 136.5,339.5C 136.314,347.149 139.981,350.315 147.5,349C 149.552,348.07 151.052,346.57 152,344.5C 152.28,348.578 150.447,351.411 146.5,353C 140.268,355.006 135.768,353.172 133,347.5C 130.993,340.319 132.826,334.485 138.5,330C 144.603,328.102 148.936,329.936 151.5,335.5 Z"/></g>
<g><path style="opacity:1" fill="#121212" d="M 159.5,329.5 C 160.5,329.5 161.5,329.5 162.5,329.5C 162.351,330.552 162.517,331.552 163,332.5C 167.075,328.59 171.075,328.59 175,332.5C 176.204,338.753 176.871,345.086 177,351.5C 177.75,352.126 178.584,352.626 179.5,353C 175.789,353.825 172.122,353.659 168.5,352.5C 169.242,351.713 170.075,351.047 171,350.5C 171.667,345.167 171.667,339.833 171,334.5C 168.146,331.984 165.479,332.317 163,335.5C 162.333,340.5 162.333,345.5 163,350.5C 163.833,351.333 164.667,352.167 165.5,353C 161.833,353.667 158.167,353.667 154.5,353C 155.416,352.626 156.25,352.126 157,351.5C 157.667,345.5 157.667,339.5 157,333.5C 156.25,332.874 155.416,332.374 154.5,332C 156.175,331.015 157.842,330.181 159.5,329.5 Z"/></g>
<g><path style="opacity:1" fill="#171717" d="M 187.5,329.5 C 201.189,328.348 206.356,334.348 203,347.5C 198.63,354.7 192.797,356.2 185.5,352C 178.462,343.746 179.129,336.246 187.5,329.5 Z"/></g>
<g><path style="opacity:1" fill="#121212" d="M 250.5,329.5 C 252.451,329.227 253.951,329.893 255,331.5C 266.004,327.48 271.004,331.48 270,343.5C 268.302,352.178 263.302,355.178 255,352.5C 254.333,355.833 254.333,359.167 255,362.5C 256.067,363.191 257.234,363.691 258.5,364C 254.167,364.667 249.833,364.667 245.5,364C 246.931,363.535 248.097,362.701 249,361.5C 249.5,352.173 249.666,342.839 249.5,333.5C 248.325,333.719 247.325,333.386 246.5,332.5C 247.624,331.141 248.958,330.141 250.5,329.5 Z"/></g>
<g><path style="opacity:1" fill="#141414" d="M 278.5,329.5 C 286.891,328.003 291.558,331.336 292.5,339.5C 287.125,339.172 281.792,339.505 276.5,340.5C 279.643,350.8 284.976,352.133 292.5,344.5C 292.833,344.833 293.167,345.167 293.5,345.5C 290.582,353.037 285.249,355.537 277.5,353C 270.616,344.881 270.949,337.048 278.5,329.5 Z"/></g>
<g><path style="opacity:1" fill="#131313" d="M 611.5,329.5 C 619.562,328.335 623.896,331.668 624.5,339.5C 619.5,339.5 614.5,339.5 609.5,339.5C 609.362,347.201 613.029,350.367 620.5,349C 622.019,347.649 623.352,346.149 624.5,344.5C 624.57,348.021 622.904,350.855 619.5,353C 608.107,354.941 603.274,350.107 605,338.5C 605.873,334.475 608.039,331.475 611.5,329.5 Z"/></g>
<g><path style="opacity:1" fill="#080808" d="M 631.5,329.5 C 632.833,329.5 634.167,329.5 635.5,329.5C 635.351,330.552 635.517,331.552 636,332.5C 640.075,328.59 644.075,328.59 648,332.5C 648.333,338.5 648.667,344.5 649,350.5C 649.833,351.333 650.667,352.167 651.5,353C 647.833,353.667 644.167,353.667 640.5,353C 641.579,352.044 642.745,351.211 644,350.5C 644.667,345.5 644.667,340.5 644,335.5C 641.525,331.595 638.858,331.595 636,335.5C 635.333,340.833 635.333,346.167 636,351.5C 636.75,352.126 637.584,352.626 638.5,353C 634.789,353.825 631.122,353.659 627.5,352.5C 628.325,351.614 629.325,351.281 630.5,351.5C 630.666,345.491 630.499,339.491 630,333.5C 629.25,332.874 628.416,332.374 627.5,332C 628.858,331.066 630.192,330.232 631.5,329.5 Z"/></g>
<g><path style="opacity:1" fill="#111111" d="M 660.5,329.5 C 675.675,329.522 680.175,336.522 674,350.5C 664.71,357.268 658.043,355.268 654,344.5C 652.984,338.03 655.15,333.03 660.5,329.5 Z"/></g>
<g><path style="opacity:1" fill="#131313" d="M 723.5,329.5 C 724.5,329.5 725.5,329.5 726.5,329.5C 726.351,330.552 726.517,331.552 727,332.5C 733.228,327.768 738.228,328.768 742,335.5C 743.886,342.549 742.053,348.382 736.5,353C 733.438,353.741 730.438,353.575 727.5,352.5C 726.345,355.446 726.179,358.446 727,361.5C 728.171,362.893 729.671,363.727 731.5,364C 727.167,364.667 722.833,364.667 718.5,364C 719.416,363.626 720.25,363.126 721,362.5C 721.5,352.839 721.666,343.172 721.5,333.5C 720.325,333.719 719.325,333.386 718.5,332.5C 720.145,331.304 721.811,330.304 723.5,329.5 Z"/></g>
<g><path style="opacity:1" fill="#0c0c0c" d="M 764.5,335.5 C 764.5,336.5 764.5,337.5 764.5,338.5C 759.305,338.179 754.305,338.513 749.5,339.5C 749.314,347.149 752.981,350.315 760.5,349C 762.552,348.07 764.052,346.57 765,344.5C 765.28,348.578 763.447,351.411 759.5,353C 753.268,355.006 748.768,353.172 746,347.5C 743.993,340.319 745.826,334.485 751.5,330C 757.603,328.102 761.936,329.936 764.5,335.5 Z"/></g>
<g><path style="opacity:1" fill="#141414" d="M 1109.5,329.5 C 1112.52,329.335 1115.52,329.502 1118.5,330C 1123.17,332.15 1123.51,334.65 1119.5,337.5C 1117.81,335.971 1116.48,334.137 1115.5,332C 1111.83,330.729 1109.33,331.896 1108,335.5C 1106.57,340.757 1107.74,345.257 1111.5,349C 1116.19,350.31 1119.69,348.81 1122,344.5C 1120.87,352.167 1116.37,355 1108.5,353C 1102.82,349.364 1100.99,344.197 1103,337.5C 1104.3,334.039 1106.47,331.372 1109.5,329.5 Z"/></g>
<g><path style="opacity:1" fill="#111111" d="M 1132.5,329.5 C 1148.3,330.089 1152.46,337.422 1145,351.5C 1136.28,356.879 1129.94,354.879 1126,345.5C 1124.22,338.48 1126.39,333.147 1132.5,329.5 Z"/></g>
<g><path style="opacity:1" fill="#0d0d0d" d="M 1156.5,329.5 C 1157.86,330.007 1158.86,331.007 1159.5,332.5C 1163.91,328.59 1168.24,328.59 1172.5,332.5C 1177.11,328.616 1181.61,328.616 1186,332.5C 1186.33,338.5 1186.67,344.5 1187,350.5C 1187.9,351.701 1189.07,352.535 1190.5,353C 1186.5,353.667 1182.5,353.667 1178.5,353C 1179.42,352.626 1180.25,352.126 1181,351.5C 1181.67,345.833 1181.67,340.167 1181,334.5C 1178.15,331.984 1175.48,332.317 1173,335.5C 1172.33,340.5 1172.33,345.5 1173,350.5C 1173.9,351.701 1175.07,352.535 1176.5,353C 1172.5,353.667 1168.5,353.667 1164.5,353C 1165.93,352.535 1167.1,351.701 1168,350.5C 1168.67,345.5 1168.67,340.5 1168,335.5C 1165.17,331.766 1162.17,331.766 1159,335.5C 1158.33,340.5 1158.33,345.5 1159,350.5C 1159.9,351.701 1161.07,352.535 1162.5,353C 1158.5,353.667 1154.5,353.667 1150.5,353C 1151.93,352.535 1153.1,351.701 1154,350.5C 1154.67,345.167 1154.67,339.833 1154,334.5C 1152.79,333.929 1151.63,333.262 1150.5,332.5C 1152.59,331.482 1154.59,330.482 1156.5,329.5 Z"/></g>
<g><path style="opacity:1" fill="#0c0c0c" d="M 1210.5,335.5 C 1210.5,336.5 1210.5,337.5 1210.5,338.5C 1205.31,338.179 1200.31,338.513 1195.5,339.5C 1195.31,347.149 1198.98,350.315 1206.5,349C 1208.55,348.07 1210.05,346.57 1211,344.5C 1211.28,348.578 1209.45,351.411 1205.5,353C 1199.27,355.006 1194.77,353.172 1192,347.5C 1189.99,340.319 1191.83,334.485 1197.5,330C 1203.6,328.102 1207.94,329.936 1210.5,335.5 Z"/></g>
<g><path style="opacity:1" fill="#151515" d="M 220.5,329.5 C 224.226,329.177 227.893,329.511 231.5,330.5C 230.5,331.167 229.5,331.833 228.5,332.5C 230.139,337.112 232.306,341.446 235,345.5C 236.361,341.279 237.861,337.113 239.5,333C 238.978,332.05 238.311,331.216 237.5,330.5C 239.833,329.167 242.167,329.167 244.5,330.5C 243.855,331.646 243.022,332.646 242,333.5C 238.888,343.057 235.221,352.39 231,361.5C 228.79,364.29 225.956,365.123 222.5,364C 221.62,362.644 221.286,361.144 221.5,359.5C 227.627,360.843 230.96,358.51 231.5,352.5C 229.13,344.097 225.463,336.431 220.5,329.5 Z"/></g>
<g><path style="opacity:1" fill="#171717" d="M 693.5,329.5 C 697.226,329.177 700.893,329.511 704.5,330.5C 703.675,331.386 702.675,331.719 701.5,331.5C 702.638,336.408 704.471,341.074 707,345.5C 708.983,341.722 710.483,337.722 711.5,333.5C 711.081,332.328 710.415,331.328 709.5,330.5C 712.167,329.167 714.833,329.167 717.5,330.5C 716.758,331.287 715.925,331.953 715,332.5C 711.391,342.659 707.391,352.659 703,362.5C 700.421,364.347 697.588,364.847 694.5,364C 693.483,362.951 693.316,361.784 694,360.5C 696.405,359.726 698.905,359.226 701.5,359C 702.905,357.023 703.905,354.857 704.5,352.5C 701.61,344.39 697.944,336.723 693.5,329.5 Z"/></g>
<g><path style="opacity:1" fill="#090909" d="M 1061.5,329.5 C 1064.17,329.5 1066.83,329.5 1069.5,329.5C 1069.33,335.842 1069.5,342.175 1070,348.5C 1072.97,351.265 1075.63,350.932 1078,347.5C 1078.67,342.5 1078.67,337.5 1078,332.5C 1076.79,331.929 1075.63,331.262 1074.5,330.5C 1077.09,329.52 1079.75,329.187 1082.5,329.5C 1082.33,335.842 1082.5,342.175 1083,348.5C 1083.77,349.849 1084.94,350.682 1086.5,351C 1084.13,351.735 1081.8,352.568 1079.5,353.5C 1078.75,352.624 1078.25,351.624 1078,350.5C 1074.19,353.952 1070.19,354.285 1066,351.5C 1064.62,344.924 1064.12,338.257 1064.5,331.5C 1062.82,331.715 1061.82,331.048 1061.5,329.5 Z"/></g>
<g><path style="opacity:1" fill="#f8f8f8" d="M 189.5,331.5 C 196.607,331.838 199.607,335.671 198.5,343C 198.606,351.944 195.106,353.777 188,348.5C 185.539,342.402 186.039,336.735 189.5,331.5 Z"/></g>
<g><path style="opacity:1" fill="#f3f3f3" d="M 662.5,331.5 C 667.558,331.114 670.391,333.448 671,338.5C 671.667,341.5 671.667,344.5 671,347.5C 669.195,352.547 666.195,353.547 662,350.5C 657.2,343.896 657.366,337.563 662.5,331.5 Z"/></g>
<g><path style="opacity:1" fill="#f2f2f2" d="M 1134.5,331.5 C 1138.95,331.774 1141.78,334.108 1143,338.5C 1143.67,341.5 1143.67,344.5 1143,347.5C 1140.6,353.195 1137.26,353.862 1133,349.5C 1130.73,345.07 1130.06,340.403 1131,335.5C 1131.69,333.65 1132.86,332.316 1134.5,331.5 Z"/></g>
<g><path style="opacity:1" fill="#d8d8d8" d="M 139.5,331.5 C 143.693,331.362 146.027,333.362 146.5,337.5C 143.102,337.82 139.768,337.487 136.5,336.5C 137.26,334.64 138.26,332.973 139.5,331.5 Z"/></g>
<g><path style="opacity:1" fill="#dedede" d="M 280.5,331.5 C 284.167,331.833 286.167,333.833 286.5,337.5C 283.5,337.5 280.5,337.5 277.5,337.5C 277.028,334.642 278.028,332.642 280.5,331.5 Z"/></g>
<g><path style="opacity:1" fill="#dbdbdb" d="M 612.5,331.5 C 616.833,331.167 618.833,333.167 618.5,337.5C 615.5,337.5 612.5,337.5 609.5,337.5C 609.615,335.053 610.615,333.053 612.5,331.5 Z"/></g>
<g><path style="opacity:1" fill="#d8d8d8" d="M 752.5,331.5 C 756.693,331.362 759.027,333.362 759.5,337.5C 756.102,337.82 752.768,337.487 749.5,336.5C 750.26,334.64 751.26,332.973 752.5,331.5 Z"/></g>
<g><path style="opacity:1" fill="#d8d8d8" d="M 1198.5,331.5 C 1202.69,331.362 1205.03,333.362 1205.5,337.5C 1202.1,337.82 1198.77,337.487 1195.5,336.5C 1196.26,334.64 1197.26,332.973 1198.5,331.5 Z"/></g>
<g><path style="opacity:1" fill="#f4f4f4" d="M 255.5,333.5 C 263.641,333.42 266.808,337.42 265,345.5C 263.347,351.547 260.014,352.88 255,349.5C 254.219,344.083 254.385,338.75 255.5,333.5 Z"/></g>
<g><path style="opacity:1" fill="#f5f5f5" d="M 728.5,333.5 C 732.49,332.616 735.323,333.949 737,337.5C 738.426,342.757 737.259,347.257 733.5,351C 730.472,352.14 728.305,351.306 727,348.5C 725.955,343.215 726.455,338.215 728.5,333.5 Z"/></g>
<g><path style="opacity:1" fill="#b1b1b1" d="M 218.5,331.5 C 217.432,332.434 216.099,332.768 214.5,332.5C 214.5,337.833 214.5,343.167 214.5,348.5C 213.511,343.025 213.178,337.358 213.5,331.5C 215.167,331.5 216.833,331.5 218.5,331.5 Z"/></g>
<g><path style="opacity:1" fill="#bcbcbc" d="M 482.5,323.5 C 480.57,327.373 479.903,331.706 480.5,336.5C 428.997,336.832 377.664,336.499 326.5,335.5C 377.5,335.5 428.5,335.5 479.5,335.5C 479.5,331.167 479.5,326.833 479.5,322.5C 480.791,322.263 481.791,322.596 482.5,323.5 Z"/></g>
<g><path style="opacity:1" fill="#434343" d="M 151.5,335.5 C 152.434,336.568 152.768,337.901 152.5,339.5C 147.167,339.5 141.833,339.5 136.5,339.5C 141.305,338.513 146.305,338.179 151.5,338.5C 151.5,337.5 151.5,336.5 151.5,335.5 Z"/></g>
<g><path style="opacity:1" fill="#434343" d="M 764.5,335.5 C 765.434,336.568 765.768,337.901 765.5,339.5C 760.167,339.5 754.833,339.5 749.5,339.5C 754.305,338.513 759.305,338.179 764.5,338.5C 764.5,337.5 764.5,336.5 764.5,335.5 Z"/></g>
<g><path style="opacity:1" fill="#434343" d="M 1210.5,335.5 C 1211.43,336.568 1211.77,337.901 1211.5,339.5C 1206.17,339.5 1200.83,339.5 1195.5,339.5C 1200.31,338.513 1205.31,338.179 1210.5,338.5C 1210.5,337.5 1210.5,336.5 1210.5,335.5 Z"/></g>
<g><path style="opacity:1" fill="#8f8f8f" d="M 326.5,340.5 C 377.664,339.501 428.997,339.168 480.5,339.5C 480.5,344.167 480.5,348.833 480.5,353.5C 479.515,349.366 479.182,345.032 479.5,340.5C 428.5,340.5 377.5,340.5 326.5,340.5 Z"/></g>
<g><path style="opacity:1" fill="#b2b2b2" d="M 990.5,341.5 C 990.56,340.957 990.893,340.624 991.5,340.5C 992.499,355.152 992.833,369.818 992.5,384.5C 992.5,384.833 992.5,385.167 992.5,385.5C 991.833,370.833 991.167,356.167 990.5,341.5 Z"/></g>
<g><path style="opacity:1" fill="#515151" d="M 326.5,291.5 C 238.5,291.5 150.5,291.5 62.5,291.5C 62.5,322.5 62.5,353.5 62.5,384.5C 150.5,384.5 238.5,384.5 326.5,384.5C 238.335,385.499 150.002,385.833 61.5,385.5C 61.5,353.833 61.5,322.167 61.5,290.5C 150.002,290.167 238.335,290.501 326.5,291.5 Z"/></g>
<g><path style="opacity:1" fill="#454545" d="M 517.5,340.5 C 518.496,354.99 518.829,369.657 518.5,384.5C 611.833,384.5 705.167,384.5 798.5,384.5C 705.001,385.499 611.335,385.833 517.5,385.5C 517.5,370.5 517.5,355.5 517.5,340.5 Z"/></g>
</svg>
